<svg width="536" height="496" viewBox="0 0 536 496" fill="none" xmlns="http://www.w3.org/2000/svg">
<g filter="url(#filter0_d_2470_13771)">
<ellipse cx="231.312" cy="181.228" rx="182.126" ry="180.256" fill="#ECEFF5"/>
</g>
<g filter="url(#filter1_d_2470_13771)">
<rect x="103.535" y="396.248" width="272.959" height="218.551" rx="20" transform="rotate(-90 103.535 396.248)" fill="white"/>
</g>
<rect x="283.928" y="187.666" width="18.5017" height="178.969" rx="4" fill="#D9D9D9"/>
<rect x="149.793" y="199.253" width="18.5017" height="166.093" rx="4" fill="#D9D9D9"/>
<rect x="126.67" y="329.295" width="18.5017" height="36.0512" rx="4" fill="#1E1E1E"/>
<rect x="171.76" y="187.666" width="18.5017" height="178.969" rx="4" fill="#1E1E1E"/>
<rect x="194.891" y="217.279" width="17.3453" height="149.355" rx="4" fill="#D9D9D9"/>
<rect x="216.859" y="262.343" width="17.3453" height="104.291" rx="4" fill="#1E1E1E"/>
<rect x="238.832" y="200.541" width="18.5017" height="166.093" rx="4" fill="#1E1E1E"/>
<rect x="261.955" y="281.657" width="18.5017" height="86.2655" rx="4" fill="#D9D9D9"/>
<path d="M23.8143 280.369C29.9655 280.369 35.8648 282.938 40.2144 287.512C44.5639 292.086 47.0075 298.29 47.0075 304.758C47.0075 310.8 44.9022 316.353 41.4411 320.631L42.4045 321.644H45.2234L63.0643 340.405L57.712 346.033L39.8711 327.272V324.308L38.9077 323.295C34.84 326.934 29.5591 329.148 23.8143 329.148C17.6631 329.148 11.7638 326.579 7.41422 322.005C3.06465 317.431 0.621094 311.227 0.621094 304.758C0.621094 298.29 3.06465 292.086 7.41422 287.512C11.7638 282.938 17.6631 280.369 23.8143 280.369ZM23.8143 287.873C14.8938 287.873 7.75746 295.378 7.75746 304.758C7.75746 314.139 14.8938 321.644 23.8143 321.644C32.7347 321.644 39.8711 314.139 39.8711 304.758C39.8711 295.378 32.7347 287.873 23.8143 287.873Z" fill="#59564F"/>
<g filter="url(#filter2_d_2470_13771)">
<path d="M323.158 203.183C317.635 203.183 313.158 198.705 313.158 193.183V64.8146C313.158 53.7689 322.113 44.8147 333.158 44.8147L426.888 44.8147C432.411 44.8147 436.888 49.2918 436.888 54.8147V183.183C436.888 194.228 427.934 203.183 416.888 203.183L323.158 203.183Z" fill="white"/>
</g>
<g filter="url(#filter3_d_2470_13771)">
<rect x="418.379" y="107.906" width="85.5703" height="9.01281" rx="4.50641" transform="rotate(-180 418.379 107.906)" fill="#59564F"/>
</g>
<g filter="url(#filter4_d_2470_13771)">
<rect x="418.379" y="92.4541" width="85.5703" height="9.01281" rx="4.50641" transform="rotate(-180 418.379 92.4541)" fill="#59564F"/>
</g>
<g filter="url(#filter5_d_2470_13771)">
<rect x="418.379" y="77.0039" width="85.5703" height="9.01281" rx="4.50641" transform="rotate(-180 418.379 77.0039)" fill="#59564F"/>
</g>
<g filter="url(#filter6_d_2470_13771)">
<rect x="418.379" y="141.381" width="85.5703" height="10.3004" rx="5.15018" transform="rotate(-180 418.379 141.381)" fill="#59564F"/>
</g>
<g filter="url(#filter7_d_2470_13771)">
<rect x="417.225" y="158.12" width="85.5703" height="10.3004" rx="5.15018" transform="rotate(-180 417.225 158.12)" fill="#59564F"/>
</g>
<g filter="url(#filter8_d_2470_13771)">
<rect x="386.008" y="173.57" width="53.1924" height="9.01281" rx="4.50641" transform="rotate(-180 386.008 173.57)" fill="#59564F"/>
</g>
<g filter="url(#filter9_d_2470_13771)">
<rect x="418.379" y="124.643" width="85.5703" height="10.3004" rx="5.15018" transform="rotate(-180 418.379 124.643)" fill="#59564F"/>
</g>
<path d="M406.188 386.091V397H404.537V387.742H404.473L401.863 389.447V387.87L404.585 386.091H406.188ZM412.937 397.181C412.096 397.178 411.376 396.956 410.78 396.515C410.183 396.075 409.727 395.434 409.411 394.592C409.095 393.751 408.937 392.737 408.937 391.551C408.937 390.368 409.095 389.358 409.411 388.52C409.73 387.682 410.189 387.043 410.785 386.602C411.385 386.162 412.103 385.942 412.937 385.942C413.772 385.942 414.487 386.164 415.084 386.608C415.68 387.048 416.137 387.687 416.453 388.525C416.772 389.36 416.932 390.368 416.932 391.551C416.932 392.74 416.774 393.756 416.458 394.598C416.142 395.436 415.686 396.077 415.089 396.521C414.493 396.961 413.775 397.181 412.937 397.181ZM412.937 395.759C413.676 395.759 414.253 395.398 414.668 394.678C415.087 393.957 415.297 392.914 415.297 391.551C415.297 390.645 415.201 389.88 415.009 389.255C414.821 388.626 414.549 388.151 414.194 387.827C413.843 387.501 413.424 387.337 412.937 387.337C412.202 387.337 411.625 387.7 411.206 388.424C410.787 389.148 410.576 390.191 410.572 391.551C410.572 392.46 410.666 393.229 410.854 393.857C411.046 394.482 411.318 394.956 411.669 395.279C412.021 395.599 412.444 395.759 412.937 395.759ZM422.62 397.181C421.778 397.178 421.059 396.956 420.462 396.515C419.866 396.075 419.41 395.434 419.093 394.592C418.777 393.751 418.619 392.737 418.619 391.551C418.619 390.368 418.777 389.358 419.093 388.52C419.413 387.682 419.871 387.043 420.468 386.602C421.068 386.162 421.785 385.942 422.62 385.942C423.454 385.942 424.17 386.164 424.766 386.608C425.363 387.048 425.819 387.687 426.135 388.525C426.455 389.36 426.615 390.368 426.615 391.551C426.615 392.74 426.457 393.756 426.141 394.598C425.825 395.436 425.368 396.077 424.772 396.521C424.175 396.961 423.458 397.181 422.62 397.181ZM422.62 395.759C423.358 395.759 423.935 395.398 424.351 394.678C424.77 393.957 424.979 392.914 424.979 391.551C424.979 390.645 424.884 389.88 424.692 389.255C424.504 388.626 424.232 388.151 423.877 387.827C423.525 387.501 423.106 387.337 422.62 387.337C421.885 387.337 421.308 387.7 420.889 388.424C420.47 389.148 420.258 390.191 420.255 391.551C420.255 392.46 420.349 393.229 420.537 393.857C420.729 394.482 421 394.956 421.352 395.279C421.704 395.599 422.126 395.759 422.62 395.759ZM434.199 394.955V394.379C434.199 393.967 434.284 393.591 434.454 393.25C434.628 392.906 434.881 392.63 435.211 392.424C435.545 392.215 435.948 392.11 436.42 392.11C436.903 392.11 437.308 392.213 437.634 392.419C437.961 392.625 438.208 392.9 438.375 393.245C438.545 393.589 438.631 393.967 438.631 394.379V394.955C438.631 395.366 438.545 395.745 438.375 396.089C438.204 396.43 437.954 396.705 437.624 396.915C437.297 397.121 436.896 397.224 436.42 397.224C435.941 397.224 435.536 397.121 435.205 396.915C434.875 396.705 434.625 396.43 434.454 396.089C434.284 395.745 434.199 395.366 434.199 394.955ZM435.44 394.379V394.955C435.44 395.26 435.513 395.537 435.658 395.786C435.804 396.034 436.058 396.158 436.42 396.158C436.779 396.158 437.029 396.034 437.171 395.786C437.313 395.537 437.384 395.26 437.384 394.955V394.379C437.384 394.074 437.315 393.797 437.176 393.548C437.041 393.3 436.789 393.175 436.42 393.175C436.065 393.175 435.813 393.3 435.664 393.548C435.514 393.797 435.44 394.074 435.44 394.379ZM428.712 388.712V388.136C428.712 387.724 428.797 387.346 428.968 387.002C429.142 386.657 429.394 386.382 429.724 386.176C430.058 385.97 430.461 385.867 430.933 385.867C431.416 385.867 431.821 385.97 432.148 386.176C432.475 386.382 432.721 386.657 432.888 387.002C433.055 387.346 433.139 387.724 433.139 388.136V388.712C433.139 389.124 433.053 389.502 432.883 389.846C432.716 390.187 432.468 390.462 432.137 390.672C431.811 390.878 431.409 390.981 430.933 390.981C430.45 390.981 430.044 390.878 429.714 390.672C429.387 390.462 429.138 390.187 428.968 389.846C428.797 389.502 428.712 389.124 428.712 388.712ZM429.959 388.136V388.712C429.959 389.017 430.03 389.294 430.172 389.543C430.317 389.791 430.571 389.915 430.933 389.915C431.289 389.915 431.537 389.791 431.679 389.543C431.825 389.294 431.898 389.017 431.898 388.712V388.136C431.898 387.831 431.828 387.554 431.69 387.305C431.551 387.057 431.299 386.933 430.933 386.933C430.578 386.933 430.326 387.057 430.177 387.305C430.031 387.554 429.959 387.831 429.959 388.136ZM429.218 397L436.718 386.091H437.991L430.491 397H429.218Z" fill="#454459"/>
<g filter="url(#filter10_d_2470_13771)">
<path d="M524.786 348.732C532.26 368.509 533.152 389.948 527.344 410.229C521.536 430.509 509.3 448.68 492.247 462.35C475.194 476.02 454.123 484.548 431.807 486.812C409.491 489.076 386.976 484.969 367.226 475.033C347.475 465.097 331.414 449.797 321.156 431.146C310.899 412.495 306.926 391.368 309.76 370.545C312.594 349.723 322.103 330.18 337.034 314.489C351.966 298.799 371.621 287.695 393.412 282.641L398.73 302.813C381.297 306.856 365.573 315.739 353.628 328.291C341.682 340.844 334.075 356.478 331.808 373.136C329.541 389.795 332.719 406.696 340.925 421.617C349.131 436.537 361.98 448.778 377.781 456.726C393.581 464.675 411.593 467.96 429.446 466.149C447.299 464.338 464.155 457.516 477.798 446.58C491.44 435.644 501.229 421.107 505.875 404.883C510.521 388.659 509.808 371.507 503.828 355.685L524.786 348.732Z" fill="#D9D9D9"/>
<path d="M393.064 282.722C419.83 276.428 448.127 279.666 472.45 291.804C496.773 303.943 515.382 324.116 524.659 348.398L503.727 355.419C496.306 335.993 481.418 319.855 461.96 310.144C442.502 300.432 419.864 297.843 398.451 302.878L393.064 282.722Z" fill="#28292B"/>
</g>
<defs>
<filter id="filter0_d_2470_13771" x="45.1855" y="0.97168" width="372.252" height="368.513" filterUnits="userSpaceOnUse" color-interpolation-filters="sRGB">
<feFlood flood-opacity="0" result="BackgroundImageFix"/>
<feColorMatrix in="SourceAlpha" type="matrix" values="0 0 0 0 0 0 0 0 0 0 0 0 0 0 0 0 0 0 127 0" result="hardAlpha"/>
<feOffset dy="4"/>
<feGaussianBlur stdDeviation="2"/>
<feComposite in2="hardAlpha" operator="out"/>
<feColorMatrix type="matrix" values="0 0 0 0 0 0 0 0 0 0 0 0 0 0 0 0 0 0 0.25 0"/>
<feBlend mode="normal" in2="BackgroundImageFix" result="effect1_dropShadow_2470_13771"/>
<feBlend mode="normal" in="SourceGraphic" in2="effect1_dropShadow_2470_13771" result="shape"/>
</filter>
<filter id="filter1_d_2470_13771" x="99.5352" y="123.288" width="226.551" height="280.959" filterUnits="userSpaceOnUse" color-interpolation-filters="sRGB">
<feFlood flood-opacity="0" result="BackgroundImageFix"/>
<feColorMatrix in="SourceAlpha" type="matrix" values="0 0 0 0 0 0 0 0 0 0 0 0 0 0 0 0 0 0 127 0" result="hardAlpha"/>
<feOffset dy="4"/>
<feGaussianBlur stdDeviation="2"/>
<feComposite in2="hardAlpha" operator="out"/>
<feColorMatrix type="matrix" values="0 0 0 0 0 0 0 0 0 0 0 0 0 0 0 0 0 0 0.25 0"/>
<feBlend mode="normal" in2="BackgroundImageFix" result="effect1_dropShadow_2470_13771"/>
<feBlend mode="normal" in="SourceGraphic" in2="effect1_dropShadow_2470_13771" result="shape"/>
</filter>
<filter id="filter2_d_2470_13771" x="309.158" y="44.8145" width="131.73" height="166.368" filterUnits="userSpaceOnUse" color-interpolation-filters="sRGB">
<feFlood flood-opacity="0" result="BackgroundImageFix"/>
<feColorMatrix in="SourceAlpha" type="matrix" values="0 0 0 0 0 0 0 0 0 0 0 0 0 0 0 0 0 0 127 0" result="hardAlpha"/>
<feOffset dy="4"/>
<feGaussianBlur stdDeviation="2"/>
<feComposite in2="hardAlpha" operator="out"/>
<feColorMatrix type="matrix" values="0 0 0 0 0 0 0 0 0 0 0 0 0 0 0 0 0 0 0.25 0"/>
<feBlend mode="normal" in2="BackgroundImageFix" result="effect1_dropShadow_2470_13771"/>
<feBlend mode="normal" in="SourceGraphic" in2="effect1_dropShadow_2470_13771" result="shape"/>
</filter>
<filter id="filter3_d_2470_13771" x="328.809" y="98.8931" width="93.5703" height="17.0127" filterUnits="userSpaceOnUse" color-interpolation-filters="sRGB">
<feFlood flood-opacity="0" result="BackgroundImageFix"/>
<feColorMatrix in="SourceAlpha" type="matrix" values="0 0 0 0 0 0 0 0 0 0 0 0 0 0 0 0 0 0 127 0" result="hardAlpha"/>
<feOffset dy="4"/>
<feGaussianBlur stdDeviation="2"/>
<feComposite in2="hardAlpha" operator="out"/>
<feColorMatrix type="matrix" values="0 0 0 0 0 0 0 0 0 0 0 0 0 0 0 0 0 0 0.25 0"/>
<feBlend mode="normal" in2="BackgroundImageFix" result="effect1_dropShadow_2470_13771"/>
<feBlend mode="normal" in="SourceGraphic" in2="effect1_dropShadow_2470_13771" result="shape"/>
</filter>
<filter id="filter4_d_2470_13771" x="328.809" y="83.4414" width="93.5703" height="17.0127" filterUnits="userSpaceOnUse" color-interpolation-filters="sRGB">
<feFlood flood-opacity="0" result="BackgroundImageFix"/>
<feColorMatrix in="SourceAlpha" type="matrix" values="0 0 0 0 0 0 0 0 0 0 0 0 0 0 0 0 0 0 127 0" result="hardAlpha"/>
<feOffset dy="4"/>
<feGaussianBlur stdDeviation="2"/>
<feComposite in2="hardAlpha" operator="out"/>
<feColorMatrix type="matrix" values="0 0 0 0 0 0 0 0 0 0 0 0 0 0 0 0 0 0 0.25 0"/>
<feBlend mode="normal" in2="BackgroundImageFix" result="effect1_dropShadow_2470_13771"/>
<feBlend mode="normal" in="SourceGraphic" in2="effect1_dropShadow_2470_13771" result="shape"/>
</filter>
<filter id="filter5_d_2470_13771" x="328.809" y="67.9912" width="93.5703" height="17.0127" filterUnits="userSpaceOnUse" color-interpolation-filters="sRGB">
<feFlood flood-opacity="0" result="BackgroundImageFix"/>
<feColorMatrix in="SourceAlpha" type="matrix" values="0 0 0 0 0 0 0 0 0 0 0 0 0 0 0 0 0 0 127 0" result="hardAlpha"/>
<feOffset dy="4"/>
<feGaussianBlur stdDeviation="2"/>
<feComposite in2="hardAlpha" operator="out"/>
<feColorMatrix type="matrix" values="0 0 0 0 0 0 0 0 0 0 0 0 0 0 0 0 0 0 0.25 0"/>
<feBlend mode="normal" in2="BackgroundImageFix" result="effect1_dropShadow_2470_13771"/>
<feBlend mode="normal" in="SourceGraphic" in2="effect1_dropShadow_2470_13771" result="shape"/>
</filter>
<filter id="filter6_d_2470_13771" x="328.809" y="131.081" width="93.5703" height="18.3003" filterUnits="userSpaceOnUse" color-interpolation-filters="sRGB">
<feFlood flood-opacity="0" result="BackgroundImageFix"/>
<feColorMatrix in="SourceAlpha" type="matrix" values="0 0 0 0 0 0 0 0 0 0 0 0 0 0 0 0 0 0 127 0" result="hardAlpha"/>
<feOffset dy="4"/>
<feGaussianBlur stdDeviation="2"/>
<feComposite in2="hardAlpha" operator="out"/>
<feColorMatrix type="matrix" values="0 0 0 0 0 0 0 0 0 0 0 0 0 0 0 0 0 0 0.25 0"/>
<feBlend mode="normal" in2="BackgroundImageFix" result="effect1_dropShadow_2470_13771"/>
<feBlend mode="normal" in="SourceGraphic" in2="effect1_dropShadow_2470_13771" result="shape"/>
</filter>
<filter id="filter7_d_2470_13771" x="327.654" y="147.82" width="93.5703" height="18.3003" filterUnits="userSpaceOnUse" color-interpolation-filters="sRGB">
<feFlood flood-opacity="0" result="BackgroundImageFix"/>
<feColorMatrix in="SourceAlpha" type="matrix" values="0 0 0 0 0 0 0 0 0 0 0 0 0 0 0 0 0 0 127 0" result="hardAlpha"/>
<feOffset dy="4"/>
<feGaussianBlur stdDeviation="2"/>
<feComposite in2="hardAlpha" operator="out"/>
<feColorMatrix type="matrix" values="0 0 0 0 0 0 0 0 0 0 0 0 0 0 0 0 0 0 0.25 0"/>
<feBlend mode="normal" in2="BackgroundImageFix" result="effect1_dropShadow_2470_13771"/>
<feBlend mode="normal" in="SourceGraphic" in2="effect1_dropShadow_2470_13771" result="shape"/>
</filter>
<filter id="filter8_d_2470_13771" x="328.816" y="164.558" width="61.1914" height="17.0127" filterUnits="userSpaceOnUse" color-interpolation-filters="sRGB">
<feFlood flood-opacity="0" result="BackgroundImageFix"/>
<feColorMatrix in="SourceAlpha" type="matrix" values="0 0 0 0 0 0 0 0 0 0 0 0 0 0 0 0 0 0 127 0" result="hardAlpha"/>
<feOffset dy="4"/>
<feGaussianBlur stdDeviation="2"/>
<feComposite in2="hardAlpha" operator="out"/>
<feColorMatrix type="matrix" values="0 0 0 0 0 0 0 0 0 0 0 0 0 0 0 0 0 0 0.25 0"/>
<feBlend mode="normal" in2="BackgroundImageFix" result="effect1_dropShadow_2470_13771"/>
<feBlend mode="normal" in="SourceGraphic" in2="effect1_dropShadow_2470_13771" result="shape"/>
</filter>
<filter id="filter9_d_2470_13771" x="328.809" y="114.343" width="93.5703" height="18.3003" filterUnits="userSpaceOnUse" color-interpolation-filters="sRGB">
<feFlood flood-opacity="0" result="BackgroundImageFix"/>
<feColorMatrix in="SourceAlpha" type="matrix" values="0 0 0 0 0 0 0 0 0 0 0 0 0 0 0 0 0 0 127 0" result="hardAlpha"/>
<feOffset dy="4"/>
<feGaussianBlur stdDeviation="2"/>
<feComposite in2="hardAlpha" operator="out"/>
<feColorMatrix type="matrix" values="0 0 0 0 0 0 0 0 0 0 0 0 0 0 0 0 0 0 0.25 0"/>
<feBlend mode="normal" in2="BackgroundImageFix" result="effect1_dropShadow_2470_13771"/>
<feBlend mode="normal" in="SourceGraphic" in2="effect1_dropShadow_2470_13771" result="shape"/>
</filter>
<filter id="filter10_d_2470_13771" x="304.871" y="279.582" width="230.258" height="215.836" filterUnits="userSpaceOnUse" color-interpolation-filters="sRGB">
<feFlood flood-opacity="0" result="BackgroundImageFix"/>
<feColorMatrix in="SourceAlpha" type="matrix" values="0 0 0 0 0 0 0 0 0 0 0 0 0 0 0 0 0 0 127 0" result="hardAlpha"/>
<feOffset dy="4"/>
<feGaussianBlur stdDeviation="2"/>
<feComposite in2="hardAlpha" operator="out"/>
<feColorMatrix type="matrix" values="0 0 0 0 0 0 0 0 0 0 0 0 0 0 0 0 0 0 0.25 0"/>
<feBlend mode="normal" in2="BackgroundImageFix" result="effect1_dropShadow_2470_13771"/>
<feBlend mode="normal" in="SourceGraphic" in2="effect1_dropShadow_2470_13771" result="shape"/>
</filter>
</defs>
</svg>
