<svg width="228" height="186" viewBox="0 0 228 186" fill="none" xmlns="http://www.w3.org/2000/svg">
<g filter="url(#filter0_d_3980_15762)">
<path d="M35 85.9113C35 51.522 49.7056 22.9654 68.704 20.4622L201.387 2.9795C213.367 1.40101 224 10.7247 224 22.8081V70.0887C224 104.478 209.294 133.035 190.296 135.538L57.6127 153.021C45.6328 154.599 35 145.275 35 133.192V85.9113Z" fill="#D5DFF3"/>
</g>
<g filter="url(#filter1_d_3980_15762)">
<rect x="5" y="178" width="147" height="171" rx="20" transform="rotate(-90 5 178)" fill="white"/>
</g>
<g filter="url(#filter2_d_3980_15762)">
<rect x="40" y="158" width="81" height="23" rx="4" transform="rotate(-90 40 158)" fill="#D9D9D9"/>
</g>
<g filter="url(#filter3_d_3980_15762)">
<rect x="118" y="158" width="81" height="23" rx="4" transform="rotate(-90 118 158)" fill="#D9D9D9"/>
</g>
<g filter="url(#filter4_d_3980_15762)">
<rect x="65" y="158" width="38" height="24" rx="4" transform="rotate(-90 65 158)" fill="#D9D9D9"/>
</g>
<g filter="url(#filter5_d_3980_15762)">
<rect x="91" y="158" width="60" height="23" rx="4" transform="rotate(-90 91 158)" fill="#D9D9D9"/>
</g>
<path d="M130.629 132C133.978 132 137.19 133.213 139.558 135.372C141.927 137.532 143.257 140.461 143.257 143.514C143.257 146.366 142.111 148.988 140.226 151.007L140.751 151.486H142.286L152 160.343L149.086 163L139.371 154.143V152.743L138.847 152.265C136.632 153.983 133.757 155.029 130.629 155.029C127.279 155.029 124.067 153.815 121.699 151.656C119.331 149.497 118 146.568 118 143.514C118 140.461 119.331 137.532 121.699 135.372C124.067 133.213 127.279 132 130.629 132ZM130.629 135.543C125.771 135.543 121.886 139.086 121.886 143.514C121.886 147.943 125.771 151.486 130.629 151.486C135.486 151.486 139.371 147.943 139.371 143.514C139.371 139.086 135.486 135.543 130.629 135.543Z" fill="#121212"/>
<g filter="url(#filter6_d_3980_15762)">
<path d="M175 42.5C175 48.8513 169.679 54 163.116 54L15.8842 54C9.32072 54 4 48.8513 4 42.5C4 36.1487 9.32072 31 15.8842 31L163.116 31C169.679 31 175 36.1487 175 42.5Z" fill="#79747E"/>
</g>
<defs>
<filter id="filter0_d_3980_15762" x="31" y="2.80487" width="197" height="158.39" filterUnits="userSpaceOnUse" color-interpolation-filters="sRGB">
<feFlood flood-opacity="0" result="BackgroundImageFix"/>
<feColorMatrix in="SourceAlpha" type="matrix" values="0 0 0 0 0 0 0 0 0 0 0 0 0 0 0 0 0 0 127 0" result="hardAlpha"/>
<feOffset dy="4"/>
<feGaussianBlur stdDeviation="2"/>
<feComposite in2="hardAlpha" operator="out"/>
<feColorMatrix type="matrix" values="0 0 0 0 0 0 0 0 0 0 0 0 0 0 0 0 0 0 0.25 0"/>
<feBlend mode="normal" in2="BackgroundImageFix" result="effect1_dropShadow_3980_15762"/>
<feBlend mode="normal" in="SourceGraphic" in2="effect1_dropShadow_3980_15762" result="shape"/>
</filter>
<filter id="filter1_d_3980_15762" x="1" y="31" width="179" height="155" filterUnits="userSpaceOnUse" color-interpolation-filters="sRGB">
<feFlood flood-opacity="0" result="BackgroundImageFix"/>
<feColorMatrix in="SourceAlpha" type="matrix" values="0 0 0 0 0 0 0 0 0 0 0 0 0 0 0 0 0 0 127 0" result="hardAlpha"/>
<feOffset dy="4"/>
<feGaussianBlur stdDeviation="2"/>
<feComposite in2="hardAlpha" operator="out"/>
<feColorMatrix type="matrix" values="0 0 0 0 0 0 0 0 0 0 0 0 0 0 0 0 0 0 0.25 0"/>
<feBlend mode="normal" in2="BackgroundImageFix" result="effect1_dropShadow_3980_15762"/>
<feBlend mode="normal" in="SourceGraphic" in2="effect1_dropShadow_3980_15762" result="shape"/>
</filter>
<filter id="filter2_d_3980_15762" x="36" y="77" width="31" height="89" filterUnits="userSpaceOnUse" color-interpolation-filters="sRGB">
<feFlood flood-opacity="0" result="BackgroundImageFix"/>
<feColorMatrix in="SourceAlpha" type="matrix" values="0 0 0 0 0 0 0 0 0 0 0 0 0 0 0 0 0 0 127 0" result="hardAlpha"/>
<feOffset dy="4"/>
<feGaussianBlur stdDeviation="2"/>
<feComposite in2="hardAlpha" operator="out"/>
<feColorMatrix type="matrix" values="0 0 0 0 0 0 0 0 0 0 0 0 0 0 0 0 0 0 0.25 0"/>
<feBlend mode="normal" in2="BackgroundImageFix" result="effect1_dropShadow_3980_15762"/>
<feBlend mode="normal" in="SourceGraphic" in2="effect1_dropShadow_3980_15762" result="shape"/>
</filter>
<filter id="filter3_d_3980_15762" x="114" y="77" width="31" height="89" filterUnits="userSpaceOnUse" color-interpolation-filters="sRGB">
<feFlood flood-opacity="0" result="BackgroundImageFix"/>
<feColorMatrix in="SourceAlpha" type="matrix" values="0 0 0 0 0 0 0 0 0 0 0 0 0 0 0 0 0 0 127 0" result="hardAlpha"/>
<feOffset dy="4"/>
<feGaussianBlur stdDeviation="2"/>
<feComposite in2="hardAlpha" operator="out"/>
<feColorMatrix type="matrix" values="0 0 0 0 0 0 0 0 0 0 0 0 0 0 0 0 0 0 0.25 0"/>
<feBlend mode="normal" in2="BackgroundImageFix" result="effect1_dropShadow_3980_15762"/>
<feBlend mode="normal" in="SourceGraphic" in2="effect1_dropShadow_3980_15762" result="shape"/>
</filter>
<filter id="filter4_d_3980_15762" x="61" y="120" width="32" height="46" filterUnits="userSpaceOnUse" color-interpolation-filters="sRGB">
<feFlood flood-opacity="0" result="BackgroundImageFix"/>
<feColorMatrix in="SourceAlpha" type="matrix" values="0 0 0 0 0 0 0 0 0 0 0 0 0 0 0 0 0 0 127 0" result="hardAlpha"/>
<feOffset dy="4"/>
<feGaussianBlur stdDeviation="2"/>
<feComposite in2="hardAlpha" operator="out"/>
<feColorMatrix type="matrix" values="0 0 0 0 0 0 0 0 0 0 0 0 0 0 0 0 0 0 0.25 0"/>
<feBlend mode="normal" in2="BackgroundImageFix" result="effect1_dropShadow_3980_15762"/>
<feBlend mode="normal" in="SourceGraphic" in2="effect1_dropShadow_3980_15762" result="shape"/>
</filter>
<filter id="filter5_d_3980_15762" x="87" y="98" width="31" height="68" filterUnits="userSpaceOnUse" color-interpolation-filters="sRGB">
<feFlood flood-opacity="0" result="BackgroundImageFix"/>
<feColorMatrix in="SourceAlpha" type="matrix" values="0 0 0 0 0 0 0 0 0 0 0 0 0 0 0 0 0 0 127 0" result="hardAlpha"/>
<feOffset dy="4"/>
<feGaussianBlur stdDeviation="2"/>
<feComposite in2="hardAlpha" operator="out"/>
<feColorMatrix type="matrix" values="0 0 0 0 0 0 0 0 0 0 0 0 0 0 0 0 0 0 0.25 0"/>
<feBlend mode="normal" in2="BackgroundImageFix" result="effect1_dropShadow_3980_15762"/>
<feBlend mode="normal" in="SourceGraphic" in2="effect1_dropShadow_3980_15762" result="shape"/>
</filter>
<filter id="filter6_d_3980_15762" x="0" y="31" width="179" height="31" filterUnits="userSpaceOnUse" color-interpolation-filters="sRGB">
<feFlood flood-opacity="0" result="BackgroundImageFix"/>
<feColorMatrix in="SourceAlpha" type="matrix" values="0 0 0 0 0 0 0 0 0 0 0 0 0 0 0 0 0 0 127 0" result="hardAlpha"/>
<feOffset dy="4"/>
<feGaussianBlur stdDeviation="2"/>
<feComposite in2="hardAlpha" operator="out"/>
<feColorMatrix type="matrix" values="0 0 0 0 0 0 0 0 0 0 0 0 0 0 0 0 0 0 0.25 0"/>
<feBlend mode="normal" in2="BackgroundImageFix" result="effect1_dropShadow_3980_15762"/>
<feBlend mode="normal" in="SourceGraphic" in2="effect1_dropShadow_3980_15762" result="shape"/>
</filter>
</defs>
</svg>
