<svg width="408" height="585" viewBox="0 0 408 585" fill="none" xmlns="http://www.w3.org/2000/svg">
<rect x="66" width="269" height="485" rx="20" fill="#333333"/>
<rect x="74" y="22" width="251" height="463" rx="20" fill="#E6E6E6"/>
<g filter="url(#filter0_d_2441_14610)">
<rect x="251" y="176" width="103" height="101" rx="50" transform="rotate(-180 251 176)" fill="white"/>
</g>
<path fill-rule="evenodd" clip-rule="evenodd" d="M223.98 127.008C223.98 125.135 223.818 123.335 223.516 121.606H199.5V131.821H213.224C212.632 135.122 210.836 137.919 208.135 139.791V146.417H216.376C221.198 141.82 223.98 135.05 223.98 127.008Z" fill="#4285F4"/>
<path fill-rule="evenodd" clip-rule="evenodd" d="M199.499 152.814C206.384 152.814 212.156 150.449 216.375 146.416L208.134 139.79C205.85 141.375 202.93 142.311 199.499 142.311C192.857 142.311 187.235 137.666 185.23 131.424H176.711V138.266C180.907 146.896 189.53 152.814 199.499 152.814Z" fill="#34A853"/>
<path fill-rule="evenodd" clip-rule="evenodd" d="M185.232 131.424C184.722 129.84 184.432 128.148 184.432 126.407C184.432 124.667 184.722 122.974 185.232 121.39V114.548H176.712C174.985 118.113 174 122.146 174 126.407C174 130.668 174.985 134.701 176.712 138.266L185.232 131.424Z" fill="#FBBC05"/>
<path fill-rule="evenodd" clip-rule="evenodd" d="M199.499 110.503C203.243 110.503 206.604 111.835 209.247 114.452L216.56 106.878C212.144 102.617 206.372 100 199.499 100C189.53 100 180.907 105.918 176.711 114.548L185.23 121.39C187.235 115.148 192.857 110.503 199.499 110.503Z" fill="#EA4335"/>
<rect x="96.5" y="245.5" width="206" height="30" rx="9.5" fill="white" stroke="#9A9594"/>
<path d="M115.981 262.121C115.981 261.848 116.074 261.618 116.26 261.433C116.445 261.242 116.697 261.147 117.014 261.147C117.336 261.147 117.588 261.242 117.769 261.433C117.954 261.618 118.047 261.848 118.047 262.121C118.047 262.395 117.954 262.624 117.769 262.81C117.588 262.995 117.336 263.088 117.014 263.088C116.697 263.088 116.445 262.995 116.26 262.81C116.074 262.624 115.981 262.395 115.981 262.121ZM120.306 262.121C120.306 261.848 120.399 261.618 120.585 261.433C120.77 261.242 121.022 261.147 121.339 261.147C121.661 261.147 121.913 261.242 122.093 261.433C122.279 261.618 122.372 261.848 122.372 262.121C122.372 262.395 122.279 262.624 122.093 262.81C121.913 262.995 121.661 263.088 121.339 263.088C121.022 263.088 120.77 262.995 120.585 262.81C120.399 262.624 120.306 262.395 120.306 262.121ZM124.631 262.121C124.631 261.848 124.724 261.618 124.909 261.433C125.095 261.242 125.346 261.147 125.664 261.147C125.986 261.147 126.238 261.242 126.418 261.433C126.604 261.618 126.696 261.848 126.696 262.121C126.696 262.395 126.604 262.624 126.418 262.81C126.238 262.995 125.986 263.088 125.664 263.088C125.346 263.088 125.095 262.995 124.909 262.81C124.724 262.624 124.631 262.395 124.631 262.121ZM128.956 262.121C128.956 261.848 129.049 261.618 129.234 261.433C129.42 261.242 129.671 261.147 129.989 261.147C130.311 261.147 130.562 261.242 130.743 261.433C130.929 261.618 131.021 261.848 131.021 262.121C131.021 262.395 130.929 262.624 130.743 262.81C130.562 262.995 130.311 263.088 129.989 263.088C129.671 263.088 129.42 262.995 129.234 262.81C129.049 262.624 128.956 262.395 128.956 262.121ZM133.281 262.121C133.281 261.848 133.373 261.618 133.559 261.433C133.745 261.242 133.996 261.147 134.313 261.147C134.636 261.147 134.887 261.242 135.068 261.433C135.253 261.618 135.346 261.848 135.346 262.121C135.346 262.395 135.253 262.624 135.068 262.81C134.887 262.995 134.636 263.088 134.313 263.088C133.996 263.088 133.745 262.995 133.559 262.81C133.373 262.624 133.281 262.395 133.281 262.121ZM137.605 262.121C137.605 261.848 137.698 261.618 137.884 261.433C138.069 261.242 138.321 261.147 138.638 261.147C138.96 261.147 139.212 261.242 139.393 261.433C139.578 261.618 139.671 261.848 139.671 262.121C139.671 262.395 139.578 262.624 139.393 262.81C139.212 262.995 138.96 263.088 138.638 263.088C138.321 263.088 138.069 262.995 137.884 262.81C137.698 262.624 137.605 262.395 137.605 262.121ZM141.93 262.121C141.93 261.848 142.023 261.618 142.209 261.433C142.394 261.242 142.646 261.147 142.963 261.147C143.285 261.147 143.537 261.242 143.717 261.433C143.903 261.618 143.996 261.848 143.996 262.121C143.996 262.395 143.903 262.624 143.717 262.81C143.537 262.995 143.285 263.088 142.963 263.088C142.646 263.088 142.394 262.995 142.209 262.81C142.023 262.624 141.93 262.395 141.93 262.121ZM146.255 262.121C146.255 261.848 146.348 261.618 146.533 261.433C146.719 261.242 146.97 261.147 147.288 261.147C147.61 261.147 147.862 261.242 148.042 261.433C148.228 261.618 148.321 261.848 148.321 262.121C148.321 262.395 148.228 262.624 148.042 262.81C147.862 262.995 147.61 263.088 147.288 263.088C146.97 263.088 146.719 262.995 146.533 262.81C146.348 262.624 146.255 262.395 146.255 262.121ZM150.58 262.121C150.58 261.848 150.673 261.618 150.858 261.433C151.044 261.242 151.295 261.147 151.613 261.147C151.935 261.147 152.186 261.242 152.367 261.433C152.553 261.618 152.645 261.848 152.645 262.121C152.645 262.395 152.553 262.624 152.367 262.81C152.186 262.995 151.935 263.088 151.613 263.088C151.295 263.088 151.044 262.995 150.858 262.81C150.673 262.624 150.58 262.395 150.58 262.121Z" fill="#59564F"/>
<rect x="96.5" y="202.5" width="206" height="33" rx="9.5" fill="white" stroke="#9A9594"/>
<path d="M119.402 224.146C118.816 224.146 118.286 224.051 117.812 223.861C117.344 223.666 116.943 223.395 116.611 223.048C116.284 222.701 116.033 222.293 115.857 221.825C115.681 221.356 115.593 220.851 115.593 220.309V220.016C115.593 219.396 115.684 218.834 115.864 218.331C116.045 217.828 116.296 217.398 116.619 217.042C116.941 216.681 117.322 216.405 117.761 216.214C118.201 216.024 118.677 215.929 119.189 215.929C119.756 215.929 120.251 216.024 120.676 216.214C121.101 216.405 121.453 216.673 121.731 217.02C122.014 217.362 122.224 217.77 122.361 218.243C122.502 218.717 122.573 219.239 122.573 219.811V220.565H116.45V219.298H120.83V219.159C120.82 218.841 120.757 218.543 120.64 218.265C120.527 217.987 120.354 217.762 120.12 217.591C119.885 217.42 119.573 217.335 119.182 217.335C118.889 217.335 118.628 217.398 118.398 217.525C118.174 217.647 117.986 217.826 117.834 218.06C117.683 218.294 117.566 218.578 117.483 218.91C117.405 219.237 117.366 219.605 117.366 220.016V220.309C117.366 220.655 117.412 220.978 117.505 221.275C117.603 221.568 117.744 221.825 117.93 222.044C118.115 222.264 118.34 222.438 118.604 222.564C118.867 222.687 119.167 222.748 119.504 222.748C119.929 222.748 120.308 222.662 120.64 222.491C120.972 222.32 121.26 222.079 121.504 221.766L122.434 222.667C122.263 222.916 122.041 223.155 121.768 223.385C121.494 223.609 121.16 223.792 120.764 223.934C120.374 224.076 119.919 224.146 119.402 224.146ZM129.176 216.075H130.78V223.78C130.78 224.493 130.629 225.099 130.326 225.597C130.023 226.095 129.601 226.473 129.059 226.732C128.517 226.996 127.889 227.127 127.176 227.127C126.874 227.127 126.537 227.083 126.166 226.996C125.799 226.908 125.443 226.766 125.096 226.571C124.754 226.38 124.469 226.129 124.239 225.816L125.067 224.776C125.35 225.113 125.663 225.36 126.004 225.516C126.346 225.672 126.705 225.75 127.081 225.75C127.486 225.75 127.831 225.675 128.114 225.523C128.402 225.377 128.624 225.16 128.78 224.872C128.937 224.583 129.015 224.232 129.015 223.817V217.87L129.176 216.075ZM123.793 220.125V219.972C123.793 219.371 123.866 218.824 124.012 218.331C124.159 217.833 124.369 217.406 124.642 217.049C124.916 216.688 125.248 216.412 125.638 216.222C126.029 216.026 126.471 215.929 126.964 215.929C127.477 215.929 127.914 216.021 128.275 216.207C128.641 216.393 128.946 216.659 129.191 217.005C129.435 217.347 129.625 217.757 129.762 218.236C129.903 218.709 130.008 219.237 130.077 219.818V220.309C130.013 220.875 129.906 221.393 129.754 221.861C129.603 222.33 129.403 222.735 129.154 223.077C128.905 223.419 128.597 223.683 128.231 223.868C127.87 224.054 127.442 224.146 126.949 224.146C126.466 224.146 126.029 224.046 125.638 223.846C125.253 223.646 124.921 223.365 124.642 223.004C124.369 222.643 124.159 222.218 124.012 221.729C123.866 221.236 123.793 220.702 123.793 220.125ZM125.558 219.972V220.125C125.558 220.487 125.592 220.824 125.66 221.136C125.733 221.449 125.843 221.725 125.99 221.964C126.141 222.198 126.332 222.384 126.561 222.521C126.796 222.652 127.071 222.718 127.389 222.718C127.804 222.718 128.143 222.63 128.407 222.455C128.675 222.279 128.88 222.042 129.022 221.744C129.169 221.441 129.271 221.104 129.33 220.733V219.408C129.3 219.12 129.239 218.851 129.147 218.602C129.059 218.353 128.939 218.136 128.788 217.95C128.636 217.76 128.446 217.613 128.216 217.511C127.987 217.403 127.716 217.35 127.403 217.35C127.086 217.35 126.81 217.418 126.576 217.555C126.341 217.691 126.149 217.879 125.997 218.119C125.851 218.358 125.741 218.636 125.668 218.954C125.594 219.271 125.558 219.61 125.558 219.972ZM134.533 217.584V224H132.768V216.075H134.453L134.533 217.584ZM136.958 216.024L136.943 217.665C136.836 217.645 136.718 217.63 136.592 217.621C136.469 217.611 136.347 217.606 136.225 217.606C135.923 217.606 135.656 217.65 135.427 217.738C135.197 217.821 135.005 217.943 134.848 218.104C134.697 218.26 134.58 218.451 134.497 218.675C134.414 218.9 134.365 219.151 134.35 219.43L133.947 219.459C133.947 218.961 133.996 218.5 134.094 218.075C134.192 217.65 134.338 217.276 134.533 216.954C134.734 216.632 134.983 216.38 135.28 216.2C135.583 216.019 135.932 215.929 136.328 215.929C136.435 215.929 136.55 215.938 136.672 215.958C136.799 215.978 136.894 216 136.958 216.024ZM141.561 224.146C140.975 224.146 140.445 224.051 139.971 223.861C139.503 223.666 139.102 223.395 138.77 223.048C138.443 222.701 138.192 222.293 138.016 221.825C137.84 221.356 137.752 220.851 137.752 220.309V220.016C137.752 219.396 137.843 218.834 138.023 218.331C138.204 217.828 138.455 217.398 138.778 217.042C139.1 216.681 139.481 216.405 139.92 216.214C140.36 216.024 140.836 215.929 141.348 215.929C141.915 215.929 142.41 216.024 142.835 216.214C143.26 216.405 143.612 216.673 143.89 217.02C144.173 217.362 144.383 217.77 144.52 218.243C144.661 218.717 144.732 219.239 144.732 219.811V220.565H138.609V219.298H142.989V219.159C142.979 218.841 142.916 218.543 142.799 218.265C142.686 217.987 142.513 217.762 142.279 217.591C142.044 217.42 141.732 217.335 141.341 217.335C141.048 217.335 140.787 217.398 140.557 217.525C140.333 217.647 140.145 217.826 139.993 218.06C139.842 218.294 139.725 218.578 139.642 218.91C139.564 219.237 139.525 219.605 139.525 220.016V220.309C139.525 220.655 139.571 220.978 139.664 221.275C139.762 221.568 139.903 221.825 140.089 222.044C140.274 222.264 140.499 222.438 140.763 222.564C141.026 222.687 141.326 222.748 141.663 222.748C142.088 222.748 142.467 222.662 142.799 222.491C143.131 222.32 143.419 222.079 143.663 221.766L144.593 222.667C144.422 222.916 144.2 223.155 143.927 223.385C143.653 223.609 143.319 223.792 142.923 223.934C142.533 224.076 142.078 224.146 141.561 224.146ZM150.705 221.854C150.705 221.678 150.661 221.52 150.573 221.378C150.485 221.231 150.317 221.1 150.068 220.982C149.824 220.865 149.462 220.758 148.984 220.66C148.564 220.567 148.178 220.458 147.827 220.331C147.48 220.199 147.182 220.04 146.933 219.854C146.684 219.669 146.491 219.449 146.354 219.195C146.218 218.941 146.149 218.648 146.149 218.316C146.149 217.994 146.22 217.689 146.362 217.401C146.503 217.113 146.706 216.859 146.97 216.639C147.233 216.419 147.553 216.246 147.929 216.119C148.31 215.992 148.735 215.929 149.204 215.929C149.868 215.929 150.436 216.041 150.91 216.266C151.389 216.485 151.755 216.786 152.009 217.167C152.263 217.542 152.39 217.967 152.39 218.441H150.624C150.624 218.231 150.571 218.036 150.463 217.855C150.361 217.669 150.204 217.521 149.995 217.408C149.785 217.291 149.521 217.232 149.204 217.232C148.901 217.232 148.649 217.281 148.449 217.379C148.254 217.472 148.107 217.594 148.01 217.745C147.917 217.896 147.871 218.062 147.871 218.243C147.871 218.375 147.895 218.495 147.944 218.602C147.997 218.705 148.085 218.8 148.207 218.888C148.329 218.971 148.496 219.049 148.705 219.122C148.92 219.195 149.189 219.266 149.511 219.334C150.117 219.461 150.637 219.625 151.071 219.825C151.511 220.021 151.848 220.274 152.082 220.587C152.316 220.895 152.433 221.285 152.433 221.759C152.433 222.11 152.358 222.433 152.206 222.726C152.06 223.014 151.845 223.265 151.562 223.48C151.279 223.69 150.939 223.854 150.544 223.971C150.153 224.088 149.714 224.146 149.225 224.146C148.508 224.146 147.9 224.02 147.402 223.766C146.904 223.507 146.525 223.177 146.267 222.777C146.013 222.372 145.886 221.952 145.886 221.517H147.592C147.612 221.844 147.702 222.105 147.863 222.301C148.029 222.491 148.234 222.63 148.478 222.718C148.727 222.801 148.984 222.843 149.247 222.843C149.565 222.843 149.831 222.801 150.046 222.718C150.261 222.63 150.424 222.513 150.537 222.367C150.649 222.215 150.705 222.044 150.705 221.854ZM158.575 221.854C158.575 221.678 158.531 221.52 158.443 221.378C158.355 221.231 158.187 221.1 157.938 220.982C157.693 220.865 157.332 220.758 156.854 220.66C156.434 220.567 156.048 220.458 155.696 220.331C155.35 220.199 155.052 220.04 154.803 219.854C154.554 219.669 154.361 219.449 154.224 219.195C154.087 218.941 154.019 218.648 154.019 218.316C154.019 217.994 154.09 217.689 154.231 217.401C154.373 217.113 154.576 216.859 154.839 216.639C155.103 216.419 155.423 216.246 155.799 216.119C156.18 215.992 156.604 215.929 157.073 215.929C157.737 215.929 158.306 216.041 158.78 216.266C159.258 216.485 159.625 216.786 159.878 217.167C160.132 217.542 160.259 217.967 160.259 218.441H158.494C158.494 218.231 158.44 218.036 158.333 217.855C158.23 217.669 158.074 217.521 157.864 217.408C157.654 217.291 157.391 217.232 157.073 217.232C156.771 217.232 156.519 217.281 156.319 217.379C156.124 217.472 155.977 217.594 155.879 217.745C155.787 217.896 155.74 218.062 155.74 218.243C155.74 218.375 155.765 218.495 155.813 218.602C155.867 218.705 155.955 218.8 156.077 218.888C156.199 218.971 156.365 219.049 156.575 219.122C156.79 219.195 157.059 219.266 157.381 219.334C157.986 219.461 158.506 219.625 158.941 219.825C159.38 220.021 159.717 220.274 159.952 220.587C160.186 220.895 160.303 221.285 160.303 221.759C160.303 222.11 160.228 222.433 160.076 222.726C159.93 223.014 159.715 223.265 159.432 223.48C159.148 223.69 158.809 223.854 158.414 223.971C158.023 224.088 157.583 224.146 157.095 224.146C156.377 224.146 155.77 224.02 155.271 223.766C154.773 223.507 154.395 223.177 154.136 222.777C153.882 222.372 153.755 221.952 153.755 221.517H155.462C155.481 221.844 155.572 222.105 155.733 222.301C155.899 222.491 156.104 222.63 156.348 222.718C156.597 222.801 156.854 222.843 157.117 222.843C157.435 222.843 157.701 222.801 157.916 222.718C158.13 222.63 158.294 222.513 158.406 222.367C158.519 222.215 158.575 222.044 158.575 221.854ZM173.857 220.191C173.837 220.665 173.766 221.136 173.644 221.605C173.522 222.074 173.337 222.501 173.088 222.887C172.843 223.272 172.528 223.58 172.143 223.81C171.757 224.039 171.293 224.154 170.751 224.154C170.424 224.154 170.133 224.098 169.879 223.985C169.626 223.868 169.413 223.702 169.242 223.487C169.076 223.272 168.957 223.014 168.883 222.711C168.81 222.403 168.791 222.062 168.825 221.686L169.198 217.533H170.48L170.114 221.686C170.085 221.983 170.089 222.228 170.129 222.418C170.172 222.608 170.238 222.755 170.326 222.857C170.414 222.96 170.514 223.031 170.627 223.07C170.739 223.109 170.851 223.128 170.963 223.128C171.227 223.128 171.464 223.055 171.674 222.909C171.884 222.757 172.062 222.55 172.209 222.286C172.36 222.018 172.477 221.708 172.56 221.356C172.648 221.004 172.699 220.624 172.714 220.213C172.748 219.53 172.716 218.9 172.619 218.324C172.521 217.743 172.355 217.225 172.121 216.771C171.891 216.317 171.591 215.934 171.22 215.621C170.854 215.304 170.414 215.062 169.901 214.896C169.389 214.73 168.803 214.647 168.144 214.647C167.538 214.647 166.979 214.74 166.466 214.925C165.954 215.111 165.495 215.379 165.089 215.731C164.684 216.078 164.335 216.495 164.042 216.983C163.754 217.467 163.527 218.011 163.361 218.617C163.2 219.217 163.105 219.862 163.075 220.55C163.041 221.273 163.078 221.932 163.185 222.528C163.297 223.124 163.478 223.651 163.727 224.11C163.976 224.569 164.289 224.955 164.665 225.267C165.046 225.584 165.485 225.824 165.983 225.985C166.486 226.146 167.043 226.227 167.653 226.227C168.083 226.227 168.517 226.178 168.957 226.08C169.401 225.982 169.775 225.853 170.077 225.692L170.356 226.666C170.014 226.886 169.587 227.049 169.074 227.157C168.561 227.264 168.078 227.318 167.624 227.318C166.867 227.318 166.173 227.22 165.544 227.025C164.919 226.83 164.364 226.542 163.881 226.161C163.402 225.785 163.004 225.323 162.687 224.776C162.37 224.229 162.135 223.602 161.984 222.894C161.833 222.186 161.774 221.405 161.808 220.55C161.842 219.75 161.964 218.998 162.174 218.294C162.384 217.586 162.672 216.944 163.039 216.368C163.41 215.792 163.849 215.296 164.357 214.881C164.87 214.461 165.446 214.139 166.086 213.915C166.725 213.69 167.421 213.578 168.173 213.578C168.935 213.578 169.623 213.678 170.238 213.878C170.854 214.078 171.393 214.369 171.857 214.75C172.326 215.13 172.714 215.592 173.022 216.134C173.329 216.676 173.554 217.289 173.695 217.972C173.837 218.651 173.891 219.391 173.857 220.191ZM166.408 220.887C166.374 221.219 166.371 221.515 166.4 221.773C166.435 222.032 166.496 222.25 166.584 222.425C166.676 222.601 166.796 222.735 166.942 222.828C167.089 222.921 167.26 222.967 167.455 222.967C167.577 222.967 167.707 222.938 167.843 222.879C167.985 222.816 168.124 222.716 168.261 222.579C168.398 222.442 168.527 222.262 168.649 222.037C168.771 221.808 168.874 221.524 168.957 221.188L169.513 221.825C169.401 222.206 169.259 222.542 169.088 222.835C168.918 223.124 168.725 223.365 168.51 223.561C168.295 223.751 168.063 223.897 167.814 224C167.565 224.098 167.306 224.146 167.038 224.146C166.681 224.146 166.364 224.068 166.086 223.912C165.812 223.756 165.588 223.536 165.412 223.253C165.236 222.965 165.111 222.623 165.038 222.228C164.965 221.827 164.95 221.38 164.994 220.887C165.043 220.384 165.136 219.918 165.273 219.488C165.414 219.059 165.588 218.675 165.793 218.338C166.003 218.001 166.239 217.716 166.503 217.481C166.767 217.242 167.05 217.062 167.353 216.939C167.66 216.812 167.975 216.749 168.297 216.749C168.849 216.749 169.281 216.827 169.594 216.983C169.906 217.14 170.202 217.323 170.48 217.533L169.792 218.412C169.65 218.28 169.464 218.155 169.235 218.038C169.01 217.921 168.742 217.862 168.429 217.862C168.151 217.862 167.897 217.926 167.668 218.053C167.443 218.18 167.245 218.373 167.074 218.631C166.903 218.885 166.759 219.2 166.642 219.576C166.53 219.952 166.452 220.389 166.408 220.887ZM180.686 216.075H182.29V223.78C182.29 224.493 182.139 225.099 181.836 225.597C181.533 226.095 181.111 226.473 180.569 226.732C180.027 226.996 179.4 227.127 178.687 227.127C178.384 227.127 178.047 227.083 177.676 226.996C177.31 226.908 176.953 226.766 176.607 226.571C176.265 226.38 175.979 226.129 175.75 225.816L176.577 224.776C176.861 225.113 177.173 225.36 177.515 225.516C177.857 225.672 178.216 225.75 178.592 225.75C178.997 225.75 179.341 225.675 179.624 225.523C179.912 225.377 180.134 225.16 180.291 224.872C180.447 224.583 180.525 224.232 180.525 223.817V217.87L180.686 216.075ZM175.303 220.125V219.972C175.303 219.371 175.376 218.824 175.523 218.331C175.669 217.833 175.879 217.406 176.153 217.049C176.426 216.688 176.758 216.412 177.149 216.222C177.539 216.026 177.981 215.929 178.474 215.929C178.987 215.929 179.424 216.021 179.785 216.207C180.152 216.393 180.457 216.659 180.701 217.005C180.945 217.347 181.135 217.757 181.272 218.236C181.414 218.709 181.519 219.237 181.587 219.818V220.309C181.524 220.875 181.416 221.393 181.265 221.861C181.113 222.33 180.913 222.735 180.664 223.077C180.415 223.419 180.108 223.683 179.741 223.868C179.38 224.054 178.953 224.146 178.46 224.146C177.976 224.146 177.539 224.046 177.149 223.846C176.763 223.646 176.431 223.365 176.153 223.004C175.879 222.643 175.669 222.218 175.523 221.729C175.376 221.236 175.303 220.702 175.303 220.125ZM177.068 219.972V220.125C177.068 220.487 177.102 220.824 177.171 221.136C177.244 221.449 177.354 221.725 177.5 221.964C177.652 222.198 177.842 222.384 178.071 222.521C178.306 222.652 178.582 222.718 178.899 222.718C179.314 222.718 179.654 222.63 179.917 222.455C180.186 222.279 180.391 222.042 180.532 221.744C180.679 221.441 180.781 221.104 180.84 220.733V219.408C180.811 219.12 180.75 218.851 180.657 218.602C180.569 218.353 180.449 218.136 180.298 217.95C180.147 217.76 179.956 217.613 179.727 217.511C179.497 217.403 179.226 217.35 178.914 217.35C178.596 217.35 178.321 217.418 178.086 217.555C177.852 217.691 177.659 217.879 177.508 218.119C177.361 218.358 177.251 218.636 177.178 218.954C177.105 219.271 177.068 219.61 177.068 219.972ZM186.036 217.687V224H184.271V216.075H185.934L186.036 217.687ZM185.751 219.745L185.15 219.737C185.15 219.19 185.219 218.685 185.355 218.221C185.492 217.757 185.692 217.354 185.956 217.013C186.22 216.666 186.547 216.4 186.937 216.214C187.333 216.024 187.789 215.929 188.307 215.929C188.668 215.929 188.998 215.982 189.296 216.09C189.598 216.192 189.86 216.356 190.079 216.581C190.304 216.805 190.475 217.093 190.592 217.445C190.714 217.796 190.775 218.221 190.775 218.719V224H189.01V218.873C189.01 218.487 188.951 218.185 188.834 217.965C188.722 217.745 188.558 217.589 188.344 217.496C188.134 217.398 187.882 217.35 187.589 217.35C187.257 217.35 186.974 217.413 186.74 217.54C186.51 217.667 186.322 217.84 186.176 218.06C186.029 218.28 185.922 218.534 185.853 218.822C185.785 219.11 185.751 219.417 185.751 219.745ZM190.665 219.276L189.838 219.459C189.838 218.98 189.904 218.529 190.035 218.104C190.172 217.674 190.37 217.298 190.629 216.976C190.892 216.649 191.217 216.393 191.603 216.207C191.989 216.021 192.43 215.929 192.929 215.929C193.334 215.929 193.695 215.985 194.012 216.097C194.335 216.205 194.608 216.375 194.833 216.61C195.057 216.844 195.228 217.149 195.346 217.525C195.463 217.896 195.521 218.346 195.521 218.873V224H193.749V218.866C193.749 218.465 193.69 218.155 193.573 217.936C193.461 217.716 193.3 217.564 193.09 217.481C192.88 217.394 192.628 217.35 192.335 217.35C192.062 217.35 191.82 217.401 191.61 217.503C191.405 217.601 191.232 217.74 191.09 217.921C190.949 218.097 190.841 218.299 190.768 218.529C190.7 218.758 190.665 219.007 190.665 219.276ZM201.955 222.411V218.631C201.955 218.348 201.904 218.104 201.802 217.899C201.699 217.694 201.543 217.535 201.333 217.423C201.128 217.311 200.869 217.254 200.557 217.254C200.268 217.254 200.019 217.303 199.809 217.401C199.6 217.499 199.436 217.63 199.319 217.796C199.202 217.962 199.143 218.15 199.143 218.36H197.385C197.385 218.048 197.461 217.745 197.612 217.452C197.764 217.159 197.983 216.898 198.271 216.668C198.559 216.439 198.904 216.258 199.304 216.126C199.704 215.995 200.154 215.929 200.652 215.929C201.247 215.929 201.775 216.029 202.234 216.229C202.698 216.429 203.061 216.732 203.325 217.137C203.594 217.538 203.728 218.041 203.728 218.646V222.169C203.728 222.53 203.752 222.855 203.801 223.143C203.855 223.426 203.931 223.673 204.028 223.883V224H202.219C202.136 223.81 202.07 223.568 202.021 223.275C201.977 222.977 201.955 222.689 201.955 222.411ZM202.212 219.181L202.226 220.272H200.959C200.632 220.272 200.344 220.304 200.095 220.367C199.846 220.426 199.639 220.514 199.473 220.631C199.307 220.748 199.182 220.89 199.099 221.056C199.016 221.222 198.975 221.41 198.975 221.62C198.975 221.83 199.023 222.022 199.121 222.198C199.219 222.369 199.36 222.503 199.546 222.601C199.736 222.699 199.966 222.748 200.234 222.748C200.596 222.748 200.911 222.674 201.179 222.528C201.453 222.376 201.667 222.193 201.824 221.979C201.98 221.759 202.063 221.551 202.073 221.356L202.644 222.14C202.585 222.34 202.485 222.555 202.344 222.784C202.202 223.014 202.017 223.233 201.787 223.443C201.562 223.648 201.291 223.817 200.974 223.949C200.662 224.081 200.3 224.146 199.89 224.146C199.372 224.146 198.911 224.044 198.506 223.839C198.1 223.629 197.783 223.348 197.554 222.997C197.324 222.64 197.209 222.237 197.209 221.788C197.209 221.368 197.287 220.997 197.444 220.675C197.605 220.348 197.839 220.074 198.147 219.854C198.459 219.635 198.84 219.469 199.289 219.356C199.739 219.239 200.251 219.181 200.828 219.181H202.212ZM207.613 216.075V224H205.841V216.075H207.613ZM205.724 213.995C205.724 213.727 205.812 213.504 205.987 213.329C206.168 213.148 206.417 213.058 206.734 213.058C207.047 213.058 207.293 213.148 207.474 213.329C207.655 213.504 207.745 213.727 207.745 213.995C207.745 214.259 207.655 214.479 207.474 214.654C207.293 214.83 207.047 214.918 206.734 214.918C206.417 214.918 206.168 214.83 205.987 214.654C205.812 214.479 205.724 214.259 205.724 213.995ZM211.587 212.75V224H209.814V212.75H211.587ZM213.743 223.121C213.743 222.848 213.836 222.618 214.022 222.433C214.207 222.242 214.459 222.147 214.776 222.147C215.098 222.147 215.35 222.242 215.53 222.433C215.716 222.618 215.809 222.848 215.809 223.121C215.809 223.395 215.716 223.624 215.53 223.81C215.35 223.995 215.098 224.088 214.776 224.088C214.459 224.088 214.207 223.995 214.022 223.81C213.836 223.624 213.743 223.395 213.743 223.121ZM221.232 222.74C221.52 222.74 221.779 222.684 222.009 222.572C222.243 222.455 222.431 222.293 222.573 222.088C222.719 221.883 222.8 221.646 222.814 221.378H224.477C224.467 221.891 224.316 222.357 224.023 222.777C223.73 223.197 223.342 223.531 222.858 223.78C222.375 224.024 221.84 224.146 221.254 224.146C220.649 224.146 220.121 224.044 219.672 223.839C219.223 223.629 218.849 223.341 218.552 222.975C218.254 222.608 218.029 222.186 217.878 221.708C217.731 221.229 217.658 220.716 217.658 220.169V219.913C217.658 219.366 217.731 218.854 217.878 218.375C218.029 217.892 218.254 217.467 218.552 217.101C218.849 216.734 219.223 216.449 219.672 216.244C220.121 216.034 220.646 215.929 221.247 215.929C221.882 215.929 222.438 216.056 222.917 216.31C223.395 216.559 223.771 216.908 224.045 217.357C224.323 217.801 224.467 218.319 224.477 218.91H222.814C222.8 218.617 222.726 218.353 222.595 218.119C222.468 217.879 222.287 217.689 222.053 217.547C221.823 217.406 221.547 217.335 221.225 217.335C220.868 217.335 220.573 217.408 220.339 217.555C220.104 217.696 219.921 217.892 219.789 218.141C219.658 218.385 219.562 218.661 219.504 218.968C219.45 219.271 219.423 219.586 219.423 219.913V220.169C219.423 220.497 219.45 220.814 219.504 221.122C219.557 221.429 219.65 221.705 219.782 221.949C219.919 222.188 220.104 222.381 220.339 222.528C220.573 222.669 220.871 222.74 221.232 222.74ZM225.645 220.125V219.957C225.645 219.386 225.728 218.856 225.894 218.368C226.06 217.875 226.299 217.447 226.612 217.086C226.929 216.72 227.315 216.437 227.769 216.236C228.228 216.031 228.746 215.929 229.322 215.929C229.903 215.929 230.42 216.031 230.874 216.236C231.333 216.437 231.722 216.72 232.039 217.086C232.356 217.447 232.598 217.875 232.764 218.368C232.93 218.856 233.013 219.386 233.013 219.957V220.125C233.013 220.697 232.93 221.227 232.764 221.715C232.598 222.203 232.356 222.63 232.039 222.997C231.722 223.358 231.336 223.641 230.882 223.846C230.428 224.046 229.912 224.146 229.336 224.146C228.755 224.146 228.235 224.046 227.776 223.846C227.322 223.641 226.936 223.358 226.619 222.997C226.302 222.63 226.06 222.203 225.894 221.715C225.728 221.227 225.645 220.697 225.645 220.125ZM227.41 219.957V220.125C227.41 220.482 227.447 220.819 227.52 221.136C227.593 221.454 227.708 221.732 227.864 221.971C228.02 222.21 228.221 222.398 228.465 222.535C228.709 222.672 228.999 222.74 229.336 222.74C229.663 222.74 229.947 222.672 230.186 222.535C230.43 222.398 230.63 222.21 230.787 221.971C230.943 221.732 231.058 221.454 231.131 221.136C231.209 220.819 231.248 220.482 231.248 220.125V219.957C231.248 219.605 231.209 219.273 231.131 218.961C231.058 218.644 230.94 218.363 230.779 218.119C230.623 217.875 230.423 217.684 230.179 217.547C229.939 217.406 229.654 217.335 229.322 217.335C228.99 217.335 228.702 217.406 228.457 217.547C228.218 217.684 228.02 217.875 227.864 218.119C227.708 218.363 227.593 218.644 227.52 218.961C227.447 219.273 227.41 219.605 227.41 219.957ZM236.408 217.687V224H234.643V216.075H236.305L236.408 217.687ZM236.122 219.745L235.521 219.737C235.521 219.19 235.59 218.685 235.727 218.221C235.863 217.757 236.063 217.354 236.327 217.013C236.591 216.666 236.918 216.4 237.309 216.214C237.704 216.024 238.161 215.929 238.678 215.929C239.04 215.929 239.369 215.982 239.667 216.09C239.97 216.192 240.231 216.356 240.451 216.581C240.675 216.805 240.846 217.093 240.963 217.445C241.085 217.796 241.146 218.221 241.146 218.719V224H239.381V218.873C239.381 218.487 239.323 218.185 239.206 217.965C239.093 217.745 238.93 217.589 238.715 217.496C238.505 217.398 238.253 217.35 237.96 217.35C237.628 217.35 237.345 217.413 237.111 217.54C236.881 217.667 236.693 217.84 236.547 218.06C236.4 218.28 236.293 218.534 236.225 218.822C236.156 219.11 236.122 219.417 236.122 219.745ZM241.037 219.276L240.209 219.459C240.209 218.98 240.275 218.529 240.407 218.104C240.543 217.674 240.741 217.298 241 216.976C241.264 216.649 241.588 216.393 241.974 216.207C242.36 216.021 242.802 215.929 243.3 215.929C243.705 215.929 244.066 215.985 244.384 216.097C244.706 216.205 244.979 216.375 245.204 216.61C245.429 216.844 245.6 217.149 245.717 217.525C245.834 217.896 245.893 218.346 245.893 218.873V224H244.12V218.866C244.12 218.465 244.062 218.155 243.944 217.936C243.832 217.716 243.671 217.564 243.461 217.481C243.251 217.394 243 217.35 242.707 217.35C242.433 217.35 242.191 217.401 241.981 217.503C241.776 217.601 241.603 217.74 241.461 217.921C241.32 218.097 241.212 218.299 241.139 218.529C241.071 218.758 241.037 219.007 241.037 219.276Z" fill="#59564F"/>
<rect x="177" y="306" width="81" height="19" rx="9.5" transform="rotate(-180 177 306)" fill="#9A9594"/>
<g filter="url(#filter1_d_2441_14610)">
<path d="M127 503.201C127 471.898 144.429 445.904 166.945 443.626L328.986 427.228C340.768 426.035 351 435.284 351 447.126V488.799C351 520.102 333.571 546.096 311.055 548.374L149.014 564.772C137.232 565.965 127 556.716 127 544.874V503.201Z" fill="#ECEFF5"/>
</g>
<path d="M340.11 495.663L340.861 497.349L314.517 509.082L313.766 507.396L315.191 502.72L310.685 492.604C308.358 487.377 309.279 481.451 312.965 478.031C312.889 477.863 312.822 477.711 312.747 477.542C312.349 476.648 312.275 475.653 312.542 474.776C312.809 473.899 313.396 473.212 314.172 472.867C314.948 472.521 315.851 472.544 316.682 472.932C317.512 473.32 318.203 474.041 318.601 474.935C318.676 475.104 318.744 475.255 318.819 475.424C323.826 474.972 328.848 478.252 331.175 483.478L335.681 493.595L340.11 495.663ZM331.367 503.598C331.765 504.493 331.839 505.488 331.571 506.365C331.304 507.241 330.718 507.928 329.941 508.274C329.165 508.62 328.262 508.596 327.432 508.208C326.601 507.82 325.911 507.1 325.512 506.206" fill="#1C1B1F"/>
<path d="M400.364 493.124L402.468 493.323L403.693 493.921L404.916 494.882L405.614 495.793L406.135 496.929L406.135 498.408" stroke="white"/>
<g filter="url(#filter2_d_2441_14610)">
<rect x="4" y="577" width="158" height="228" rx="15" transform="rotate(-90 4 577)" fill="white"/>
</g>
<g filter="url(#filter3_d_2441_14610)">
<rect x="32" y="577" width="144" height="162" rx="2" transform="rotate(-90 32 577)" fill="#FFFEFE"/>
</g>
<rect x="173" y="473" width="117" height="27" rx="6" transform="rotate(-180 173 473)" fill="#59564F"/>
<rect x="227" y="484" width="48" height="5" rx="2" transform="rotate(-90 227 484)" fill="#9A9090"/>
<g filter="url(#filter4_d_2441_14610)">
<rect x="232" y="433" width="228" height="14" rx="7" transform="rotate(-180 232 433)" fill="#9A9594"/>
</g>
<g filter="url(#filter5_d_2441_14610)">
<rect x="176" y="562" width="120" height="57" rx="5" transform="rotate(-180 176 562)" fill="white"/>
</g>
<g filter="url(#filter6_d_2441_14610)">
<rect x="166" y="534" width="39" height="5" rx="2.5" transform="rotate(-180 166 534)" fill="#59564F"/>
</g>
<g filter="url(#filter7_d_2441_14610)">
<rect x="166" y="547" width="39" height="5" rx="2.5" transform="rotate(-180 166 547)" fill="#59564F"/>
</g>
<g filter="url(#filter8_d_2441_14610)">
<rect x="173" y="486" width="26" height="7" rx="3.5" transform="rotate(-180 173 486)" fill="#59564F"/>
</g>
<g filter="url(#filter9_d_2441_14610)">
<rect x="145" y="486" width="26" height="7" rx="3.5" transform="rotate(-180 145 486)" fill="#59564F"/>
</g>
<rect x="177" y="512" width="121" height="7" rx="3.5" transform="rotate(-180 177 512)" fill="#59564F"/>
<path d="M78.0303 522.701C80.9088 521.192 84.2349 520.612 87.5083 521.048C90.7817 521.484 93.8253 522.913 96.1812 525.12C98.5371 527.326 100.078 530.191 100.572 533.283C101.066 536.376 100.486 539.528 98.9196 542.266C97.3534 545.004 94.8855 547.18 91.8872 548.467C88.8889 549.753 85.5224 550.08 82.2941 549.399C79.0658 548.717 76.1503 547.065 73.9863 544.689C71.8223 542.313 70.5268 539.343 70.2947 536.225L73.8093 536.017C73.9877 538.414 74.9838 540.698 76.6476 542.525C78.3114 544.351 80.553 545.622 83.0351 546.146C85.5172 546.67 88.1056 546.418 90.4109 545.429C92.7161 544.44 94.6136 542.767 95.8178 540.662C97.0219 538.557 97.4677 536.133 97.088 533.756C96.7083 531.378 95.5237 529.175 93.7123 527.479C91.901 525.782 89.5609 524.684 87.0441 524.348C84.5274 524.013 81.97 524.459 79.7569 525.619L78.0303 522.701Z" fill="#1E1E1E"/>
<path d="M70.2994 536.286C70.0833 533.548 70.6971 530.814 72.0689 528.407C73.4406 525.999 75.5132 524.017 78.0433 522.694L79.7675 525.615C77.8224 526.632 76.229 528.156 75.1744 530.007C74.1199 531.858 73.6479 533.959 73.8141 536.064L70.2994 536.286Z" fill="#D9D9D9"/>
<rect x="114" y="527" width="8" height="8" rx="1" fill="#D9D9D9"/>
<rect x="114" y="540" width="8" height="8" rx="1" fill="#1E1E1E"/>
<defs>
<filter id="filter0_d_2441_14610" x="144" y="75" width="111" height="109" filterUnits="userSpaceOnUse" color-interpolation-filters="sRGB">
<feFlood flood-opacity="0" result="BackgroundImageFix"/>
<feColorMatrix in="SourceAlpha" type="matrix" values="0 0 0 0 0 0 0 0 0 0 0 0 0 0 0 0 0 0 127 0" result="hardAlpha"/>
<feOffset dy="4"/>
<feGaussianBlur stdDeviation="2"/>
<feComposite in2="hardAlpha" operator="out"/>
<feColorMatrix type="matrix" values="0 0 0 0 0 0 0 0 0 0 0 0 0 0 0 0 0 0 0.25 0"/>
<feBlend mode="normal" in2="BackgroundImageFix" result="effect1_dropShadow_2441_14610"/>
<feBlend mode="normal" in="SourceGraphic" in2="effect1_dropShadow_2441_14610" result="shape"/>
</filter>
<filter id="filter1_d_2441_14610" x="123" y="427.124" width="232" height="145.752" filterUnits="userSpaceOnUse" color-interpolation-filters="sRGB">
<feFlood flood-opacity="0" result="BackgroundImageFix"/>
<feColorMatrix in="SourceAlpha" type="matrix" values="0 0 0 0 0 0 0 0 0 0 0 0 0 0 0 0 0 0 127 0" result="hardAlpha"/>
<feOffset dy="4"/>
<feGaussianBlur stdDeviation="2"/>
<feComposite in2="hardAlpha" operator="out"/>
<feColorMatrix type="matrix" values="0 0 0 0 0 0 0 0 0 0 0 0 0 0 0 0 0 0 0.25 0"/>
<feBlend mode="normal" in2="BackgroundImageFix" result="effect1_dropShadow_2441_14610"/>
<feBlend mode="normal" in="SourceGraphic" in2="effect1_dropShadow_2441_14610" result="shape"/>
</filter>
<filter id="filter2_d_2441_14610" x="0" y="419" width="236" height="166" filterUnits="userSpaceOnUse" color-interpolation-filters="sRGB">
<feFlood flood-opacity="0" result="BackgroundImageFix"/>
<feColorMatrix in="SourceAlpha" type="matrix" values="0 0 0 0 0 0 0 0 0 0 0 0 0 0 0 0 0 0 127 0" result="hardAlpha"/>
<feOffset dy="4"/>
<feGaussianBlur stdDeviation="2"/>
<feComposite in2="hardAlpha" operator="out"/>
<feColorMatrix type="matrix" values="0 0 0 0 0 0 0 0 0 0 0 0 0 0 0 0 0 0 0.25 0"/>
<feBlend mode="normal" in2="BackgroundImageFix" result="effect1_dropShadow_2441_14610"/>
<feBlend mode="normal" in="SourceGraphic" in2="effect1_dropShadow_2441_14610" result="shape"/>
</filter>
<filter id="filter3_d_2441_14610" x="28" y="433" width="170" height="152" filterUnits="userSpaceOnUse" color-interpolation-filters="sRGB">
<feFlood flood-opacity="0" result="BackgroundImageFix"/>
<feColorMatrix in="SourceAlpha" type="matrix" values="0 0 0 0 0 0 0 0 0 0 0 0 0 0 0 0 0 0 127 0" result="hardAlpha"/>
<feOffset dy="4"/>
<feGaussianBlur stdDeviation="2"/>
<feComposite in2="hardAlpha" operator="out"/>
<feColorMatrix type="matrix" values="0 0 0 0 0 0 0 0 0 0 0 0 0 0 0 0 0 0 0.25 0"/>
<feBlend mode="normal" in2="BackgroundImageFix" result="effect1_dropShadow_2441_14610"/>
<feBlend mode="normal" in="SourceGraphic" in2="effect1_dropShadow_2441_14610" result="shape"/>
</filter>
<filter id="filter4_d_2441_14610" x="0" y="419" width="236" height="22" filterUnits="userSpaceOnUse" color-interpolation-filters="sRGB">
<feFlood flood-opacity="0" result="BackgroundImageFix"/>
<feColorMatrix in="SourceAlpha" type="matrix" values="0 0 0 0 0 0 0 0 0 0 0 0 0 0 0 0 0 0 127 0" result="hardAlpha"/>
<feOffset dy="4"/>
<feGaussianBlur stdDeviation="2"/>
<feComposite in2="hardAlpha" operator="out"/>
<feColorMatrix type="matrix" values="0 0 0 0 0 0 0 0 0 0 0 0 0 0 0 0 0 0 0.25 0"/>
<feBlend mode="normal" in2="BackgroundImageFix" result="effect1_dropShadow_2441_14610"/>
<feBlend mode="normal" in="SourceGraphic" in2="effect1_dropShadow_2441_14610" result="shape"/>
</filter>
<filter id="filter5_d_2441_14610" x="52" y="505" width="128" height="65" filterUnits="userSpaceOnUse" color-interpolation-filters="sRGB">
<feFlood flood-opacity="0" result="BackgroundImageFix"/>
<feColorMatrix in="SourceAlpha" type="matrix" values="0 0 0 0 0 0 0 0 0 0 0 0 0 0 0 0 0 0 127 0" result="hardAlpha"/>
<feOffset dy="4"/>
<feGaussianBlur stdDeviation="2"/>
<feComposite in2="hardAlpha" operator="out"/>
<feColorMatrix type="matrix" values="0 0 0 0 0 0 0 0 0 0 0 0 0 0 0 0 0 0 0.25 0"/>
<feBlend mode="normal" in2="BackgroundImageFix" result="effect1_dropShadow_2441_14610"/>
<feBlend mode="normal" in="SourceGraphic" in2="effect1_dropShadow_2441_14610" result="shape"/>
</filter>
<filter id="filter6_d_2441_14610" x="123" y="529" width="47" height="13" filterUnits="userSpaceOnUse" color-interpolation-filters="sRGB">
<feFlood flood-opacity="0" result="BackgroundImageFix"/>
<feColorMatrix in="SourceAlpha" type="matrix" values="0 0 0 0 0 0 0 0 0 0 0 0 0 0 0 0 0 0 127 0" result="hardAlpha"/>
<feOffset dy="4"/>
<feGaussianBlur stdDeviation="2"/>
<feComposite in2="hardAlpha" operator="out"/>
<feColorMatrix type="matrix" values="0 0 0 0 0 0 0 0 0 0 0 0 0 0 0 0 0 0 0.25 0"/>
<feBlend mode="normal" in2="BackgroundImageFix" result="effect1_dropShadow_2441_14610"/>
<feBlend mode="normal" in="SourceGraphic" in2="effect1_dropShadow_2441_14610" result="shape"/>
</filter>
<filter id="filter7_d_2441_14610" x="123" y="542" width="47" height="13" filterUnits="userSpaceOnUse" color-interpolation-filters="sRGB">
<feFlood flood-opacity="0" result="BackgroundImageFix"/>
<feColorMatrix in="SourceAlpha" type="matrix" values="0 0 0 0 0 0 0 0 0 0 0 0 0 0 0 0 0 0 127 0" result="hardAlpha"/>
<feOffset dy="4"/>
<feGaussianBlur stdDeviation="2"/>
<feComposite in2="hardAlpha" operator="out"/>
<feColorMatrix type="matrix" values="0 0 0 0 0 0 0 0 0 0 0 0 0 0 0 0 0 0 0.25 0"/>
<feBlend mode="normal" in2="BackgroundImageFix" result="effect1_dropShadow_2441_14610"/>
<feBlend mode="normal" in="SourceGraphic" in2="effect1_dropShadow_2441_14610" result="shape"/>
</filter>
<filter id="filter8_d_2441_14610" x="143" y="479" width="34" height="15" filterUnits="userSpaceOnUse" color-interpolation-filters="sRGB">
<feFlood flood-opacity="0" result="BackgroundImageFix"/>
<feColorMatrix in="SourceAlpha" type="matrix" values="0 0 0 0 0 0 0 0 0 0 0 0 0 0 0 0 0 0 127 0" result="hardAlpha"/>
<feOffset dy="4"/>
<feGaussianBlur stdDeviation="2"/>
<feComposite in2="hardAlpha" operator="out"/>
<feColorMatrix type="matrix" values="0 0 0 0 0 0 0 0 0 0 0 0 0 0 0 0 0 0 0.25 0"/>
<feBlend mode="normal" in2="BackgroundImageFix" result="effect1_dropShadow_2441_14610"/>
<feBlend mode="normal" in="SourceGraphic" in2="effect1_dropShadow_2441_14610" result="shape"/>
</filter>
<filter id="filter9_d_2441_14610" x="115" y="479" width="34" height="15" filterUnits="userSpaceOnUse" color-interpolation-filters="sRGB">
<feFlood flood-opacity="0" result="BackgroundImageFix"/>
<feColorMatrix in="SourceAlpha" type="matrix" values="0 0 0 0 0 0 0 0 0 0 0 0 0 0 0 0 0 0 127 0" result="hardAlpha"/>
<feOffset dy="4"/>
<feGaussianBlur stdDeviation="2"/>
<feComposite in2="hardAlpha" operator="out"/>
<feColorMatrix type="matrix" values="0 0 0 0 0 0 0 0 0 0 0 0 0 0 0 0 0 0 0.25 0"/>
<feBlend mode="normal" in2="BackgroundImageFix" result="effect1_dropShadow_2441_14610"/>
<feBlend mode="normal" in="SourceGraphic" in2="effect1_dropShadow_2441_14610" result="shape"/>
</filter>
</defs>
</svg>
