<svg width="48" height="95" viewBox="0 0 48 95" fill="none" xmlns="http://www.w3.org/2000/svg">
<path d="M15.2347 3.18698C15.3624 3.3688 15.4199 3.59956 15.3947 3.82858C15.3694 4.0576 15.2634 4.2661 15.0999 4.40817L14.4764 4.94998C14.3129 5.092 14.1054 5.15596 13.8995 5.12783C13.6937 5.0997 13.5063 4.98176 13.3786 4.79995L11.3748 1.94735C11.2471 1.76553 11.1895 1.53471 11.2148 1.30569C11.2401 1.07667 11.3461 0.868224 11.5096 0.72616L12.1331 0.184351C12.2966 0.0423307 12.504 -0.0216349 12.7099 0.00649494C12.9158 0.0346248 13.1032 0.152571 13.231 0.334376L15.2347 3.18698Z" fill="#001133"/>
<path d="M4.45806 12.935C4.63665 13.1768 4.72158 13.4877 4.69413 13.7991C4.66668 14.1106 4.52912 14.3972 4.31171 14.5958L3.93653 14.9385C3.71911 15.1371 3.43964 15.2316 3.15962 15.2011C2.8796 15.1705 2.62194 15.0175 2.44334 14.7757L0.879805 12.6584C0.701211 12.4166 0.616286 12.1058 0.643735 11.7943C0.671184 11.4829 0.808742 11.1963 1.02616 10.9976L1.40133 10.6549C1.61875 10.4563 1.89822 10.3618 2.17824 10.3924C2.45827 10.4229 2.71592 10.5759 2.89452 10.8177L4.45806 12.935Z" fill="#001133"/>
<path d="M38.4733 13.2372C38.5404 13.3184 38.5925 13.4136 38.6266 13.5172C38.6607 13.6207 38.6761 13.7307 38.672 13.8409C38.6678 13.9512 38.6442 14.0594 38.6024 14.1595C38.5607 14.2595 38.5016 14.3495 38.4286 14.4241L37.6874 15.1823C37.6144 15.2569 37.5289 15.3149 37.4358 15.3528C37.3426 15.3907 37.2437 15.4078 37.1446 15.4032C37.0455 15.3986 36.9482 15.3723 36.8583 15.3259C36.7683 15.2794 36.6875 15.2137 36.6203 15.1325L34.6729 12.777C34.6058 12.6958 34.5537 12.6007 34.5196 12.4971C34.4855 12.3935 34.4701 12.2835 34.4743 12.1733C34.4784 12.0631 34.5021 11.9549 34.5438 11.8548C34.5856 11.7547 34.6446 11.6648 34.7176 11.5902L35.4588 10.832C35.5318 10.7574 35.6173 10.6994 35.7105 10.6615C35.8036 10.6236 35.9025 10.6065 36.0016 10.6111C36.1007 10.6157 36.198 10.642 36.2879 10.6884C36.3779 10.7349 36.4588 10.8005 36.5259 10.8817L38.4733 13.2372Z" fill="#001133"/>
<path d="M28.363 16.8308C28.5475 17.1012 28.6279 17.4421 28.5865 17.7784C28.545 18.1147 28.3852 18.419 28.1421 18.6242L27.8986 18.8298C27.6554 19.0351 27.349 19.1245 27.0466 19.0784C26.7442 19.0324 26.4707 18.8545 26.2862 18.5841L24.949 16.6246C24.7645 16.3543 24.6841 16.0134 24.7255 15.6771C24.7669 15.3408 24.9267 15.0365 25.1698 14.8313L25.4134 14.6256C25.6565 14.4204 25.9629 14.331 26.2653 14.3771C26.5677 14.4232 26.8412 14.601 27.0258 14.8714L28.363 16.8308Z" fill="#001133"/>
<path d="M28.8986 34.9691C28.9625 35.05 29.0115 35.144 29.0427 35.246C29.0739 35.3479 29.0867 35.4557 29.0805 35.5632C29.0742 35.6706 29.049 35.7757 29.0062 35.8723C28.9635 35.9689 28.9041 36.0553 28.8313 36.1263L28.2775 36.6675C28.1306 36.8111 27.9384 36.8838 27.7433 36.8698C27.5482 36.8557 27.3661 36.756 27.2371 36.5927L11.9871 17.2852C11.9232 17.2043 11.8742 17.1102 11.843 17.0082C11.8118 16.9063 11.799 16.7985 11.8053 16.691C11.8115 16.5836 11.8367 16.4786 11.8795 16.382C11.9223 16.2853 11.9817 16.199 12.0544 16.1279L12.6082 15.5867C12.7551 15.4432 12.9473 15.3705 13.1424 15.3845C13.3375 15.3986 13.5196 15.4982 13.6486 15.6616L28.8986 34.9691Z" fill="#001133"/>
<path d="M46.9492 21.7057C47.0126 21.7854 47.0613 21.8782 47.0924 21.9788C47.1235 22.0794 47.1365 22.1858 47.1307 22.292C47.1249 22.3982 47.1003 22.502 47.0583 22.5976C47.0164 22.6932 46.9579 22.7787 46.8863 22.8492L46.0918 23.6311C46.0202 23.7016 45.9367 23.7556 45.8463 23.7903C45.7559 23.8249 45.6602 23.8394 45.5647 23.8329C45.4693 23.8264 45.3759 23.799 45.29 23.7524C45.204 23.7057 45.1272 23.6408 45.0638 23.5611L43.0978 21.0896C43.0344 21.0099 42.9858 20.9171 42.9547 20.8165C42.9236 20.7159 42.9106 20.6095 42.9164 20.5033C42.9222 20.3972 42.9468 20.2933 42.9888 20.1977C43.0307 20.1021 43.0891 20.0166 43.1608 19.9462L43.9553 19.1642C44.0269 19.0938 44.1103 19.0397 44.2007 19.0051C44.2912 18.9704 44.3868 18.956 44.4823 18.9625C44.5778 18.969 44.6712 18.9963 44.7571 19.043C44.8431 19.0896 44.9199 19.1546 44.9832 19.2342L46.9492 21.7057Z" fill="#001133"/>
<path d="M38.4845 30.6187C38.6169 30.8099 38.6756 31.0518 38.6476 31.2911C38.6197 31.5304 38.5074 31.7476 38.3355 31.8949L37.5377 32.5782C37.3658 32.7255 37.1483 32.7907 36.9331 32.7597C36.718 32.7286 36.5227 32.6037 36.3903 32.4125L34.5362 29.7345C34.4038 29.5433 34.3451 29.3014 34.373 29.0621C34.401 28.8227 34.5132 28.6055 34.6851 28.4583L35.483 27.775C35.6549 27.6277 35.8723 27.5624 36.0875 27.5935C36.3027 27.6246 36.4979 27.7495 36.6303 27.9407L38.4845 30.6187Z" fill="#001133"/>
<path d="M18.492 49.1559C18.5453 49.2226 18.5863 49.3004 18.6126 49.3848C18.6388 49.4692 18.6499 49.5585 18.6451 49.6477C18.6404 49.7368 18.6199 49.824 18.5848 49.9043C18.5497 49.9847 18.5008 50.0565 18.4408 50.1158L17.8625 50.6867C17.8025 50.746 17.7326 50.7916 17.6567 50.8208C17.5808 50.8501 17.5006 50.8624 17.4204 50.8571C17.3403 50.8518 17.2618 50.829 17.1896 50.79C17.1174 50.7509 17.0528 50.6965 16.9995 50.6297L0.978448 30.5589C0.925139 30.4921 0.884164 30.4143 0.857889 30.3299C0.831613 30.2455 0.820535 30.1562 0.825293 30.0671C0.830052 29.9779 0.850532 29.8907 0.8856 29.8103C0.920669 29.73 0.969662 29.6581 1.0297 29.5989L1.60786 29.0279C1.66789 28.9686 1.73788 28.9231 1.81375 28.8939C1.88961 28.8647 1.96989 28.8523 2.05004 28.8576C2.13018 28.8629 2.20861 28.8857 2.28084 28.9247C2.35306 28.9637 2.41767 29.0182 2.47098 29.0849L18.492 49.1559Z" fill="#001133"/>
<path d="M15.8058 35.3412C15.4807 35.6279 15.0229 35.698 14.5333 35.5362C14.0437 35.3744 13.5623 34.9939 13.195 34.4785C13.0131 34.2232 12.8647 33.9425 12.7583 33.6524C12.6518 33.3623 12.5895 33.0684 12.5747 32.7876C12.5599 32.5068 12.5931 32.2444 12.6722 32.0156C12.7514 31.7868 12.875 31.596 13.036 31.4541C13.3611 31.1675 13.8189 31.0973 14.3085 31.2592C14.7982 31.421 15.2796 31.8014 15.6469 32.3169C15.8287 32.5721 15.9771 32.8528 16.0835 33.1429C16.19 33.4331 16.2523 33.7269 16.2671 34.0077C16.2819 34.2886 16.2487 34.5509 16.1696 34.7797C16.0904 35.0085 15.9668 35.1993 15.8058 35.3412Z" fill="#001133"/>
<path d="M40.5017 48.9717C40.5747 49.0681 40.6299 49.1795 40.6642 49.2997C40.6984 49.4199 40.7111 49.5464 40.7014 49.672C40.6917 49.7976 40.6599 49.9199 40.6077 50.0318C40.5555 50.1438 40.4841 50.2432 40.3974 50.3244L39.7372 50.9427C39.6505 51.0239 39.5503 51.0854 39.4422 51.1235C39.3342 51.1616 39.2204 51.1757 39.1075 51.1649C38.9946 51.1541 38.8846 51.1187 38.784 51.0607C38.6834 51.0027 38.5941 50.9232 38.5211 50.8268L36.7605 48.5014C36.6875 48.405 36.6323 48.2935 36.598 48.1734C36.5637 48.0532 36.5511 47.9267 36.5608 47.8011C36.5705 47.6755 36.6023 47.5532 36.6544 47.4413C36.7066 47.3293 36.7781 47.23 36.8648 47.1488L37.525 46.5304C37.6117 46.4492 37.7119 46.3877 37.8199 46.3496C37.928 46.3115 38.0417 46.2974 38.1547 46.3082C38.2676 46.319 38.3775 46.3544 38.4781 46.4124C38.5788 46.4704 38.6681 46.5499 38.7411 46.6463L40.5017 48.9717Z" fill="#001133"/>
<path d="M42.3719 66.6195C42.5258 66.8116 42.6047 67.0638 42.5914 67.3206C42.5781 67.5775 42.4736 67.8179 42.3009 67.989L42.1532 68.1355C41.9806 68.3066 41.7538 68.3944 41.5229 68.3796C41.292 68.3648 41.0758 68.2486 40.922 68.0565L25.1086 48.3153C24.9548 48.1232 24.8758 47.8711 24.8891 47.6142C24.9025 47.3574 25.007 47.117 25.1797 46.9459L25.3273 46.7995C25.5 46.6283 25.7268 46.5405 25.9577 46.5553C26.1886 46.5701 26.4047 46.6864 26.5586 46.8784L42.3719 66.6195Z" fill="#001133"/>
<path d="M6.29765 50.3163C6.36785 50.4068 6.42135 50.5117 6.45508 50.6252C6.48881 50.7387 6.50213 50.8584 6.49426 50.9775C6.48639 51.0967 6.45749 51.2131 6.40921 51.3198C6.36092 51.4266 6.2942 51.5217 6.21286 51.5998L5.42339 52.3578C5.34205 52.4359 5.24768 52.4954 5.14567 52.5329C5.04366 52.5704 4.93603 52.5852 4.82888 52.5765C4.72172 52.5677 4.61718 52.5356 4.5212 52.4819C4.42521 52.4282 4.33963 52.354 4.26943 52.2635L2.63631 50.1591C2.56611 50.0686 2.51261 49.9636 2.47888 49.8502C2.44515 49.7367 2.43183 49.617 2.4397 49.4978C2.44757 49.3786 2.47647 49.2623 2.52475 49.1556C2.57303 49.0488 2.63976 48.9536 2.72109 48.8756L3.51057 48.1176C3.59191 48.0395 3.68628 47.98 3.78829 47.9425C3.8903 47.9049 3.99793 47.8902 4.10508 47.8989C4.21224 47.9077 4.31678 47.9398 4.41276 47.9935C4.50875 48.0472 4.59433 48.1214 4.66453 48.2119L6.29765 50.3163Z" fill="#001133"/>
<path d="M17.338 59.1663C17.4113 59.2642 17.4666 59.3771 17.5007 59.4987C17.5347 59.6204 17.5469 59.7483 17.5366 59.8751C17.5262 60.002 17.4934 60.1254 17.4402 60.2382C17.387 60.351 17.3142 60.451 17.2263 60.5325L16.5355 61.1726C16.3578 61.3373 16.1286 61.4167 15.8983 61.3934C15.668 61.3701 15.4553 61.2459 15.3073 61.0483L13.5693 58.7281C13.496 58.6302 13.4407 58.5173 13.4067 58.3957C13.3726 58.274 13.3604 58.1461 13.3708 58.0193C13.3812 57.8924 13.4139 57.7691 13.4671 57.6563C13.5204 57.5435 13.5931 57.4434 13.6811 57.3619L14.3718 56.7218C14.5495 56.5572 14.7788 56.4778 15.0091 56.5011C15.2394 56.5244 15.452 56.6485 15.6 56.8461L17.338 59.1663Z" fill="#001133"/>
<path d="M6.01511 65.8537C6.18226 66.0645 6.26727 66.3406 6.2514 66.6212C6.23554 66.9017 6.12014 67.1638 5.93055 67.3497L5.51235 67.7598C5.32276 67.9457 5.07456 68.0402 4.82231 68.0225C4.57005 68.0049 4.33442 67.8765 4.16727 67.6657L2.18153 65.1602C2.01438 64.9494 1.92937 64.6733 1.94524 64.3927C1.96111 64.1121 2.07656 63.8501 2.26615 63.6641L2.68429 63.2542C2.87388 63.0683 3.12208 62.9737 3.37434 62.9913C3.62659 63.009 3.86222 63.1374 4.02937 63.3483L6.01511 65.8537Z" fill="#001133"/>
<path d="M28.4064 66.1569C28.5782 66.3878 28.6604 66.6851 28.6351 66.9835C28.6097 67.2818 28.4789 67.5567 28.2713 67.7478L27.9111 68.0793C27.8083 68.1739 27.6897 68.245 27.5622 68.2886C27.4347 68.3323 27.3007 68.3475 27.1678 68.3336C27.035 68.3196 26.906 68.2767 26.7881 68.2072C26.6701 68.1378 26.5657 68.0433 26.4807 67.9289L24.7614 65.6173C24.5897 65.3864 24.5075 65.0891 24.5328 64.7907C24.5582 64.4924 24.689 64.2174 24.8966 64.0264L25.2568 63.6949C25.3596 63.6003 25.4782 63.5291 25.6057 63.4855C25.7333 63.4419 25.8672 63.4266 26.0001 63.4406C26.1329 63.4545 26.2619 63.4975 26.3798 63.5669C26.4978 63.6363 26.6022 63.7309 26.6873 63.8453L28.4064 66.1569Z" fill="#001133"/>
<path d="M17.7929 77.9154C17.8668 78.0092 17.9233 78.1183 17.9593 78.2365C17.9952 78.3547 18.01 78.4797 18.0025 78.6041C17.9951 78.7286 17.9656 78.8503 17.9159 78.9621C17.8662 79.074 17.7972 79.1738 17.7128 79.2559L17.2122 79.7434C17.0418 79.9093 16.8191 79.9931 16.5931 79.9765C16.3671 79.9598 16.1562 79.8439 16.007 79.6544L13.3657 76.2985C13.2919 76.2047 13.2353 76.0955 13.1994 75.9774C13.1634 75.8592 13.1487 75.7343 13.1562 75.6098C13.1636 75.4853 13.193 75.3637 13.2427 75.2518C13.2924 75.14 13.3615 75.0401 13.4459 74.958L13.9465 74.4705C14.1169 74.3046 14.3396 74.2208 14.5656 74.2374C14.7916 74.2541 15.0024 74.37 15.1516 74.5596L17.7929 77.9154Z" fill="#001133"/>
<path d="M31.1653 92.2138C31.2446 92.3164 31.305 92.4353 31.343 92.5638C31.381 92.6923 31.3958 92.8279 31.3867 92.9627C31.3776 93.0976 31.3447 93.2292 31.2899 93.3499C31.235 93.4707 31.1593 93.5782 31.0671 93.6664L30.6445 94.0707C30.4583 94.2488 30.2161 94.3374 29.9712 94.3169C29.7263 94.2964 29.4987 94.1686 29.3386 93.9615L27.1107 91.0806C27.0314 90.9781 26.971 90.8592 26.9331 90.7307C26.8951 90.6022 26.8802 90.4666 26.8893 90.3317C26.8984 90.1968 26.9313 90.0652 26.9862 89.9445C27.041 89.8238 27.1167 89.7162 27.2089 89.628L27.6316 89.2237C27.8177 89.0456 28.0599 88.957 28.3048 88.9775C28.5497 88.998 28.7773 89.1258 28.9375 89.3329L31.1653 92.2138Z" fill="#001133"/>
</svg>
